HIERARCHY
ROOT Hips
{
	OFFSET 0.000000 0.000000 0.000000
	CHANNELS 6 Xposition Yposition Zposition Xrotation Yrotation Zrotation
	JOINT LeftUpLeg_virtual
	{
		OFFSET 0.000000 0.000000 0.000000
		CHANNELS 3 Xrotation Yrotation Zrotation
		JOINT LeftUpLeg
		{
			OFFSET 15.427100 -6.655098 0.678600
			CHANNELS 3 Xrotation Yrotation Zrotation
			JOINT LeftLeg
			{
				OFFSET 4.081073 -39.591068 13.024000
				CHANNELS 3 Xrotation Yrotation Zrotation
				JOINT LeftFoot
				{
					OFFSET -4.081074 -37.707932 -15.979700
					CHANNELS 3 Xrotation Yrotation Zrotation
					JOINT LeftToeBase
					{
						OFFSET 5.346399 -15.068900 20.645000
						CHANNELS 3 Xrotation Yrotation Zrotation
						JOINT LeftToe_End
						{
							OFFSET 2.754700 0.931300 11.300900
							CHANNELS 3 Xrotation Yrotation Zrotation
							End Site
							{
								OFFSET 0 0 0
							}
						}
					}
				}
			}
		}
	}
	JOINT RightUpLeg_virtual
	{
		OFFSET 0.000000 0.000000 0.000000
		CHANNELS 3 Xrotation Yrotation Zrotation
		JOINT RightUpLeg
		{
			OFFSET -15.569500 -6.655098 0.678600
			CHANNELS 3 Xrotation Yrotation Zrotation
			JOINT RightLeg
			{
				OFFSET -4.081825 -39.591045 13.023800
				CHANNELS 3 Xrotation Yrotation Zrotation
				JOINT RightFoot
				{
					OFFSET 4.081824 -37.707954 -15.979600
					CHANNELS 3 Xrotation Yrotation Zrotation
					JOINT RightToeBase
					{
						OFFSET -5.346400 -15.068900 20.645000
						CHANNELS 3 Xrotation Yrotation Zrotation
						JOINT RightToe_End
						{
							OFFSET -2.754700 0.931300 11.300900
							CHANNELS 3 Xrotation Yrotation Zrotation
							End Site
							{
								OFFSET 0 0 0
							}
						}
					}
				}
			}
		}
	}
	JOINT Spine_virtual
	{
		OFFSET 0.000000 0.000000 0.000000
		CHANNELS 3 Xrotation Yrotation Zrotation
		JOINT Spine
		{
			OFFSET -0.279200 12.230698 -2.892100
			CHANNELS 3 Xrotation Yrotation Zrotation
			JOINT Spine1
			{
				OFFSET -0.232667 10.192268 -1.242267
				CHANNELS 3 Xrotation Yrotation Zrotation
				JOINT Spine1_split
				{
					OFFSET -0.232667 10.192268 -1.242267
					CHANNELS 3 Xrotation Yrotation Zrotation
					JOINT Spine2
					{
						OFFSET -0.232667 10.192268 -1.242267
						CHANNELS 3 Xrotation Yrotation Zrotation
						JOINT Neck_virtual
						{
							OFFSET 0.000000 0.000000 0.000000
							CHANNELS 3 Xrotation Yrotation Zrotation
							JOINT Neck
							{
								OFFSET -0.418800 17.814194 8.416900
								CHANNELS 3 Xrotation Yrotation Zrotation
								JOINT Head
								{
									OFFSET 0.000000 7.031097 3.806800
									CHANNELS 3 Xrotation Yrotation Zrotation
									JOINT HeadTop_End
									{
										OFFSET 0.000000 24.646606 12.978600
										CHANNELS 3 Xrotation Yrotation Zrotation
										End Site
										{
											OFFSET 0 0 0
										}
									}
								}
							}
						}
						JOINT LeftShoulder_virtual
						{
							OFFSET 0.000000 0.000000 0.000000
							CHANNELS 3 Xrotation Yrotation Zrotation
							JOINT LeftShoulder
							{
								OFFSET 8.476499 7.247704 -3.868750
								CHANNELS 3 Xrotation Yrotation Zrotation
								JOINT LeftShoulder_split
								{
									OFFSET 8.476499 7.247704 -3.868750
									CHANNELS 3 Xrotation Yrotation Zrotation
									JOINT LeftArm
									{
										OFFSET 9.308998 -2.777710 0.208600
										CHANNELS 3 Xrotation Yrotation Zrotation
										JOINT LeftForeArm
										{
											OFFSET 29.972298 0.000000 0.000000
											CHANNELS 3 Xrotation Yrotation Zrotation
											JOINT LeftHand
											{
												OFFSET 26.026505 0.000000 0.000000
												CHANNELS 3 Xrotation Yrotation Zrotation
												End Site
												{
													OFFSET 0 0 0
												}
											}
										}
									}
								}
							}
						}
						JOINT RightShoulder_virtual
						{
							OFFSET 0.000000 0.000000 0.000000
							CHANNELS 3 Xrotation Yrotation Zrotation
							JOINT RightShoulder
							{
								OFFSET -7.570500 7.247704 -3.868750
								CHANNELS 3 Xrotation Yrotation Zrotation
								JOINT RightShoulder_split
								{
									OFFSET -7.570500 7.247704 -3.868750
									CHANNELS 3 Xrotation Yrotation Zrotation
									JOINT RightArm
									{
										OFFSET -9.308998 -2.777710 0.208500
										CHANNELS 3 Xrotation Yrotation Zrotation
										JOINT RightForeArm
										{
											OFFSET -29.972300 0.000000 0.000000
											CHANNELS 3 Xrotation Yrotation Zrotation
											JOINT RightHand
											{
												OFFSET -26.026505 0.000000 0.000000
												CHANNELS 3 Xrotation Yrotation Zrotation
												End Site
												{
													OFFSET 0 0 0
												}
											}
										}
									}
								}
							}
						}
					}
				}
			}
		}
	}
}
MOTION
Frames: 7
Frame Time: 0.03333333
4.523257 74.208099 1.402317 0.000000 0.000000 0.000000 -9.743844 -42.323151 13.745500 -21.643848 33.014010 -2.583148 53.825248 5.725228 6.754709 -25.618028 20.294889 -9.519423 -0.416481 -0.275059 -0.643918 0.000000 0.000000 0.000000 -10.153671 -42.363675 14.575952 -29.170871 9.265926 -46.466590 60.559572 1.818952 -11.452171 -25.708260 -6.100116 21.060485 -1.213066 1.836947 1.187317 0.000000 0.000000 0.000000 -5.006432 -44.395314 15.433593 1.724557 -3.457681 7.999049 -0.889874 -1.406959 5.203584 1.886876 -1.770383 0.683906 0.000000 0.000000 0.000000 -1.048631 -1.764333 4.679931 -10.414793 6.337218 7.023195 -16.793989 39.614930 -4.295625 0.000000 0.000000 0.000000 -1.355478 -1.672561 4.656217 -0.807140 1.299079 11.472687 -0.063083 1.683849 0.947592 -35.806935 -30.323851 -44.583336 -7.145581 -81.010210 -4.640640 0.000000 0.000000 0.000000 -1.437285 -1.642616 4.720744 -0.670243 -6.655928 6.830766 2.121782 1.408863 1.102798 137.535380 78.221171 -101.724637 -0.844013 27.470249 0.787826 0.000000 0.000000 0.000000 
5.271619 74.846207 1.655987 0.000000 0.000000 0.000000 -8.536512 -41.354384 14.677020 -21.918825 32.025268 -4.267345 52.974899 5.390259 5.998460 -25.661224 20.053645 -7.993635 -0.211511 -0.281384 -0.582980 0.000000 0.000000 0.000000 -8.834173 -41.220082 15.540887 -30.359501 9.111991 -46.441304 60.068966 1.666225 -11.476055 -24.560409 -6.166818 21.320881 -2.185791 1.855727 1.233439 0.000000 0.000000 0.000000 -3.690973 -43.571645 16.338451 1.769854 -3.104241 7.835350 -0.828951 -1.192344 5.190278 1.815737 -1.407391 0.487635 0.000000 0.000000 0.000000 -0.935460 -1.518721 4.686656 -9.994631 6.487577 5.929082 -15.613997 38.503559 -5.434937 0.000000 0.000000 0.000000 -1.362095 -1.402167 4.632418 -0.875769 1.674465 11.035318 0.055593 1.522292 0.862860 -35.443224 -30.513412 -44.089978 -9.369109 -84.233636 -6.806844 0.000000 0.000000 0.000000 -1.271524 -1.407074 4.731516 -0.620911 -7.166135 7.423522 2.074465 1.699253 0.611073 138.855984 77.838967 -103.308237 -0.701518 26.458956 0.742818 0.000000 0.000000 0.000000 
6.027750 75.809204 1.823505 0.000000 0.000000 0.000000 -7.314992 -40.216308 15.528539 -22.006427 31.015305 -5.932021 51.453618 5.129022 5.304152 -25.213138 19.546446 -6.697971 -0.115298 -0.282022 -0.544383 0.000000 0.000000 0.000000 -7.509183 -39.984617 16.430908 -31.705653 8.614002 -46.055252 59.058296 1.521835 -11.534992 -23.208515 -5.833363 20.957056 -2.797486 1.875265 1.335774 0.000000 0.000000 0.000000 -2.416109 -42.517217 17.091013 1.845897 -2.772370 7.701250 -0.728749 -0.957523 5.200877 1.605204 -1.070791 0.348386 0.000000 0.000000 0.000000 -0.731212 -1.256102 4.700428 -9.769400 6.520302 4.861578 -14.745699 36.950825 -6.329981 0.000000 0.000000 0.000000 -1.242150 -1.108958 4.643981 -0.934217 2.014837 10.444368 0.176953 1.522588 0.729445 -34.136524 -30.147068 -43.423433 -18.329793 -86.959018 -15.692976 0.000000 0.000000 0.000000 -1.025718 -1.154249 4.735432 -0.525592 -7.561957 7.612405 2.033439 2.076374 0.327935 139.520629 77.171712 -104.692313 -0.646256 25.083153 0.645156 0.000000 0.000000 0.000000 
6.760115 76.995628 1.838612 0.000000 0.000000 0.000000 -6.155639 -38.972738 16.206188 -22.045445 30.065468 -7.359246 49.493535 4.982759 4.700964 -24.342909 18.827495 -5.648911 -0.062342 -0.273208 -0.515842 0.000000 0.000000 0.000000 -6.267255 -38.752171 17.161417 -33.258991 7.763662 -45.430908 57.680073 1.412297 -11.527215 -21.588643 -5.111552 20.010093 -2.920579 1.913165 1.447887 0.000000 0.000000 0.000000 -1.219370 -41.354466 17.640784 1.994491 -2.421610 7.575476 -0.590436 -0.699648 5.197208 1.445157 -0.905146 0.334711 0.000000 0.000000 0.000000 -0.429909 -0.962731 4.672976 -9.709997 6.441852 4.007018 -14.181284 35.206640 -7.020915 0.000000 0.000000 0.000000 -0.993635 -0.804999 4.654049 -0.987643 2.268333 9.825583 0.382926 1.652707 0.652911 -32.394279 -29.454337 -42.859102 -50.579689 -88.569877 -47.887505 0.000000 0.000000 0.000000 -0.715772 -0.879183 4.703591 -0.404427 -7.804676 7.473926 1.988043 2.478526 0.258238 140.041363 76.178302 -106.294812 -0.669457 23.341545 0.508157 0.000000 0.000000 0.000000 
7.407527 78.227264 1.759125 0.000000 0.000000 0.000000 -5.092474 -37.683499 16.658445 -22.099576 29.215000 -8.416215 47.441094 4.933792 4.245589 -23.275861 17.961625 -4.798592 0.046569 -0.257956 -0.504085 0.000000 0.000000 0.000000 -5.175905 -37.528420 17.661218 -34.959548 6.639887 -44.709520 56.211750 1.495237 -11.465040 -19.643296 -4.031971 18.905989 -2.925374 1.964048 1.498170 0.000000 0.000000 0.000000 -0.239843 -40.140274 17.944140 2.240540 -2.017201 7.430870 -0.402486 -0.419968 5.148425 1.366104 -0.897157 0.459142 0.000000 0.000000 0.000000 -0.047755 -0.654991 4.591148 -9.735936 6.268322 3.532006 -13.812304 33.468644 -7.624649 0.000000 0.000000 0.000000 -0.655119 -0.497270 4.637557 -1.045148 2.341854 9.255482 0.546710 1.859209 0.564374 -30.874579 -28.644616 -42.638935 -93.627188 -88.769332 -90.964439 0.000000 0.000000 0.000000 -0.365162 -0.588582 4.622350 -0.291413 -7.915332 7.125893 2.053250 2.996800 0.367406 140.696119 74.922947 -108.276660 -0.761972 21.407058 0.359168 0.000000 0.000000 0.000000 
7.942381 79.345139 1.577438 0.000000 0.000000 0.000000 -4.196026 -36.364521 16.842009 -22.183857 28.468987 -9.078422 45.583422 4.945332 3.997921 -22.222811 17.026473 -4.153073 0.214697 -0.233114 -0.495734 0.000000 0.000000 0.000000 -4.323505 -36.313903 17.845058 -36.651198 5.317778 -43.954931 54.939067 1.792236 -11.384657 -17.439578 -2.723035 17.909014 -3.108742 2.009865 1.438711 0.000000 0.000000 0.000000 0.518326 -38.970047 18.002010 2.548054 -1.545808 7.257759 -0.170165 -0.139966 5.047601 1.453912 -1.276603 0.569493 0.000000 0.000000 0.000000 0.361819 -0.355820 4.460218 -9.715905 6.022971 3.450209 -13.475845 31.861856 -8.223322 0.000000 0.000000 0.000000 -0.277646 -0.217475 4.592809 -1.127095 2.279977 8.856253 0.682816 2.184699 0.537640 -30.142212 -27.977292 -42.854946 -93.953774 -88.783730 -91.431187 0.000000 0.000000 0.000000 -0.013738 -0.311159 4.501004 -0.193032 -7.940754 6.672546 2.200842 3.412277 0.564212 142.014290 73.681595 -111.077946 -0.911135 19.558324 0.228131 0.000000 0.000000 0.000000 
8.325198 80.228020 1.380325 0.000000 0.000000 0.000000 -3.527414 -35.008046 16.721406 -22.289959 27.799017 -9.385671 44.054505 4.942120 3.975086 -21.282490 16.054728 -3.757357 0.281365 -0.194233 -0.435407 0.000000 0.000000 0.000000 -3.717029 -35.095646 17.682923 -38.134162 3.821157 -43.140455 53.961991 2.208500 -11.346706 -15.352044 -1.419378 16.977646 -3.158971 2.036978 1.291478 0.000000 0.000000 0.000000 1.045178 -37.846997 17.799362 2.863519 -1.023334 7.062918 0.085019 0.124030 4.900131 1.581147 -1.691803 0.670109 0.000000 0.000000 0.000000 0.743222 -0.081285 4.307872 -9.516469 5.755023 3.682570 -13.065363 30.450930 -8.874245 0.000000 0.000000 0.000000 0.083642 0.015169 4.522984 -1.218919 2.079527 8.685167 0.822653 2.676846 0.634815 -30.418343 -27.661573 -43.428419 -49.058783 -88.561148 -46.780519 0.000000 0.000000 0.000000 0.315287 -0.064032 4.367955 -0.116532 -7.926136 6.174175 2.412357 3.642339 0.708274 143.909477 72.753631 -114.633155 -1.111143 18.043183 0.125227 0.000000 0.000000 0.000000 
